<svg xmlns="http://www.w3.org/2000/svg" width="200" height="200" viewBox="0 0 200 200">
  <defs>
    <linearGradient id="wingGrad" x1="0" y1="0" x2="1" y2="1">
      <stop offset="0%" stop-color="#8ECAE6" stop-opacity="0.85"/>
      <stop offset="100%" stop-color="#8ECAE6" stop-opacity="0.35"/>
    </linearGradient>
    <radialGradient id="wingGlow" cx="0.4" cy="0.4" r="0.7">
      <stop offset="0%" stop-color="#8ECAE6" stop-opacity="0.6"/>
      <stop offset="100%" stop-color="#8ECAE6" stop-opacity="0.1"/>
    </radialGradient>
  </defs>

  <g fill="none" stroke="none">
    <g>
      <path
        d="M100 100 C70 45, 15 60, 30 115 C40 160, 85 150, 100 100 Z"
        fill="url(#wingGrad)"
        stroke="#8ECAE6"
        stroke-opacity="0.5"
        stroke-width="2"
      />
      <path
        d="M100 110 C70 125, 45 165, 75 185 C95 198, 115 160, 100 110 Z"
        fill="url(#wingGlow)"
        stroke="#8ECAE6"
        stroke-opacity="0.45"
        stroke-width="1.6"
      />
      <circle cx="62" cy="92" r="6" fill="#8ECAE6" fill-opacity="0.45"/>
      <circle cx="78" cy="130" r="4" fill="#8ECAE6" fill-opacity="0.4"/>
    </g>

    <g transform="translate(200 0) scale(-1 1)">
      <path
        d="M100 100 C70 45, 15 60, 30 115 C40 160, 85 150, 100 100 Z"
        fill="url(#wingGrad)"
        stroke="#8ECAE6"
        stroke-opacity="0.5"
        stroke-width="2"
      />
      <path
        d="M100 110 C70 125, 45 165, 75 185 C95 198, 115 160, 100 110 Z"
        fill="url(#wingGlow)"
        stroke="#8ECAE6"
        stroke-opacity="0.45"
        stroke-width="1.6"
      />
      <circle cx="62" cy="92" r="6" fill="#8ECAE6" fill-opacity="0.45"/>
      <circle cx="78" cy="130" r="4" fill="#8ECAE6" fill-opacity="0.4"/>
    </g>

    <rect x="97" y="82" width="6" height="48" rx="3" fill="#8ECAE6" fill-opacity="0.85"/>
    <path
      d="M100 82 C94 70, 86 64, 76 60"
      stroke="#8ECAE6"
      stroke-opacity="0.65"
      stroke-width="2"
      stroke-linecap="round"
    />
    <path
      d="M100 82 C106 70, 114 64, 124 60"
      stroke="#8ECAE6"
      stroke-opacity="0.65"
      stroke-width="2"
      stroke-linecap="round"
    />
  </g>
</svg>
